<svg xmlns="http://www.w3.org/2000/svg" width="14.717" height="13.593" viewBox="0 0 14.717 13.593"><path d="M123,85.876a1.167,1.167,0,0,1-1.113.043l-1.578-.768-1.389-.678,0,0,0,0,2.726,3.744a1.187,1.187,0,0,0,1.854.2l6.716-6.683Z" transform="translate(-115.498 -79.541)" fill="#ea0000"/><path d="M13.257,46.835h0v0l-1.919,1.848A4.7,4.7,0,0,1,6.7,52.933a4.751,4.751,0,0,1-4.207-6.8c.04-.089.088-.18.142-.276l.047-.082q.1-.171.216-.335l.04-.057c.058-.082.121-.162.184-.235a4.623,4.623,0,0,1,3.577-1.7,4.573,4.573,0,0,1,3.319,1.412l1.494-.889.291-.173h0l-.018-.02a6.623,6.623,0,0,0-10.48.388c-.065.089-.128.18-.182.267A6.81,6.81,0,0,0,6.7,54.99a6.753,6.753,0,0,0,6.694-6.8,6.875,6.875,0,0,0-.1-1.162C13.28,46.967,13.27,46.9,13.257,46.835Z" transform="translate(0 -41.397)" fill="#ea0000"/></svg>