<svg xmlns="http://www.w3.org/2000/svg" width="15.838" height="14.128" viewBox="0 0 15.838 14.128"><g transform="translate(0 0)"><path d="M116.086,96.263h0a.912.912,0,0,1-.4-.095l-2.543-1.238a.48.48,0,0,0-.578.124l-.034.04,2.638,3.622a1.386,1.386,0,0,0,1.163.641,1.364,1.364,0,0,0,.972-.406l7.584-7.194a.491.491,0,0,0-.641-.129l-7.689,4.507A.92.92,0,0,1,116.086,96.263Z" transform="translate(-109.045 -89.584)" fill="#ea0000"/><path d="M14.128,33.264v0l-2.2,2.089v3.533a.692.692,0,0,1-.683.683H2.887a.692.692,0,0,1-.683-.683V30.53a.692.692,0,0,1,.683-.683H11.24a.685.685,0,0,1,.56.3l1.878-1.1.024-.014h0a2.887,2.887,0,0,0-2.464-1.386H2.887A2.891,2.891,0,0,0,0,30.53v8.353a2.89,2.89,0,0,0,2.887,2.887H11.24a2.889,2.889,0,0,0,2.887-2.887V35.535l0-2.273Z" transform="translate(0 -27.643)" fill="#ea0000"/></g></svg>