<svg xmlns="http://www.w3.org/2000/svg" width="797.497" height="459.891" viewBox="0 0 797.497 459.891"><g opacity="0.202"><path d="M883.231,1130.191l-19.43,33.687h39.183l94.99-164.526-.943-.552-94.668,163.974H865.686l18.488-32.031Z" transform="translate(-276.818 -769.13)" fill="#fff"/><path d="M570.661,1283.4H531.8l19.913,34.469,19.913-34.469Zm-36.975,1.081h36.055l-18.028,31.227-18.028-31.227Z" transform="translate(225.87 -988.288)" fill="#fff"/><path d="M1210.1,778.346l56.429,97.727H964.336l-18.649-32.307L1021.225,712.9h226.956l18.327,31.755h-37v1.081h38.861q-9.8-16.97-19.591-33.94h-228.2Q982.5,777.783,944.4,843.743q9.623,16.694,19.27,33.388,152.35,0,304.7,0L1211,777.771l-.9.575Z" transform="translate(-565.749 -548.125)" fill="#fff"/><path d="M2101.943,1207.924l37.918-65.7-.943-.529L2101,1207.4Z" transform="translate(-1703.194 -879.171)" fill="#fff"/><path d="M2223.441,1283.4H2185.5v1.081h37.941Z" transform="translate(-1806.205 -988.288)" fill="#fff"/><path d="M2183.5,1142.229l18.971,32.859.92-.552-18.948-32.836Z" transform="translate(-1785.694 -879.171)" fill="#fff"/><path d="M1028.8,779.347l38.079,65.971h152.339l76.02-131.667-.943-.552-75.7,131.138H1067.5L1029.72,778.8Z" transform="translate(-612.024 -549.126)" fill="#fff"/><path d="M1435.5,844.491,1359.643,713.1l-.943.552,75.859,131.391Z" transform="translate(-828.147 -549.126)" fill="#fff"/><path d="M1765.4,844.491,1689.543,713.1l-.943.552,75.859,131.391Z" transform="translate(-1233.906 -549.126)" fill="#fff"/><path d="M1524.543,1065.047l37.941-65.7-.943-.552-37.941,65.7Z" transform="translate(-993.047 -769.13)" fill="#fff"/><path d="M1663.931,811.655,1607.02,713.1l-.92.552,56.889,98.532Z" transform="translate(-1113.465 -549.126)" fill="#fff"/><path d="M1689.543,460.788l18.97-32.836-.943-.552L1688.6,460.236Z" transform="translate(-1177.017 -329.121)" fill="#fff"/><path d="M1525,492.723l19.131-33.135-18.648-32.307h36.676l37.78,65.443.943-.552-38.1-65.971H1523.6l19.292,33.388-18.809,32.583Z" transform="translate(-1031.448 -328.197)" fill="#fff"/><path d="M798.148,998.7h75.56l18.35,31.756H779.2v1.081H893.943q-9.8-16.97-19.591-33.94H798.171v1.1Z" transform="translate(-153.334 -768.206)" fill="#fff"/><path d="M791.147,1142.229l56.429,97.75H696.8v1.081H849.461L792.09,1141.7Z" transform="translate(-89.905 -879.171)" fill="#fff"/><path d="M1315.061,1493.1l-37.941-65.7-.92.529,37.918,65.718Z" transform="translate(-688.735 -1099.176)" fill="#fff"/><path d="M2358.707,744.759h-37.3l-18.648,32.307-37-64.063h74.617l18.326,31.756Zm-36.676,1.081h38.562q-9.8-16.97-19.591-33.94h-77.1q19.419,33.664,38.861,67.328l19.269-33.388Z" transform="translate(-1961.384 -548.202)" fill="#fff"/><path d="M2349.343,746.488l18.97-32.836-.943-.552-18.97,32.859Z" transform="translate(-1988.535 -549.126)" fill="#fff"/><path d="M2796.764,742.988h-36.055l18.028-31.227,18.028,31.227Zm-37,1.081h38.861L2778.714,709.6q-9.968,17.246-19.913,34.469Z" transform="translate(-2513.219 -546.431)" fill="#fff"/><path d="M2635.818,1426.2H2597.9v1.081h37.918Z" transform="translate(-2313.411 -1098.252)" fill="#fff"/><path d="M2524.871,1097.167h38.562q-28.767-49.806-57.51-99.635c-25.708-.046-51.416,0-77.124,0l38.24,66.247-19.292,33.388h38.562l19.27,33.388,19.292-33.388Zm36.676-1.081h-37.3l-18.649,32.307-18.648-32.307h-37.3l18.649-32.307-37.62-65.167H2505.3l56.245,97.474Z" transform="translate(-2202.143 -768.138)" fill="#fff"/><path d="M2679.243,1065.047l37.941-65.7-.943-.552-37.941,65.7Z" transform="translate(-2413.265 -769.13)" fill="#fff"/><path d="M3165.5,569.1h-38.24L3088.7,635.876h77.744l-19.269-33.388,19.269-33.388Zm-37.619,1.081h36.676l-18.648,32.307,18.648,32.307h-74l37.32-64.615Z" transform="translate(-2956.895 -438.238)" fill="#fff"/><path d="M3173.2,570.752l18.947,32.859.943-.552L3174.119,570.2Z" transform="translate(-3002.971 -439.085)" fill="#fff"/><path d="M3174.119,1032.188l18.971-32.836-.943-.552-18.947,32.859Z" transform="translate(-3002.971 -769.13)" fill="#fff"/><path d="M3146.109,997.6h-38.24q-9.623,16.694-19.27,33.388l19.591,33.94,19.27-33.388h38.562q-9.8-16.97-19.591-33.94Zm-37.619,1.1h37.32l18.35,31.756h-37.3l-18.649,32.307-18.35-31.778,18.626-32.284Z" transform="translate(-2956.45 -768.206)" fill="#fff"/><path d="M2348.7,426.2H1855.6v1.081h493.1Z" transform="translate(-1855.6 -328.197)" fill="#fff"/><path d="M2031.125,1711.9H1443.2v1.1h587.925Z" transform="translate(-1443.2 -1318.256)" fill="#fff"/><path d="M1911.569,98.279,1854.842,0H1853.6l57.05,98.808Z" transform="translate(-1418.014)" fill="#fff"/><path d="M1149.622,1779.071l-38.079-65.971-.943.552,37.78,65.42Z" transform="translate(-485.217 -1319.18)" fill="#fff"/><path d="M2177.263,1559.067l-76.02-131.667-.943.529,75.721,131.138Z" transform="translate(-1740.435 -1099.176)" fill="#fff"/><path d="M2774.233,163.974l-39.571-65.8H2733.4l39.893,66.352Z" transform="translate(-2470.314)" fill="#fff"/><path d="M3174.347,1426.2H2927.8v1.081h246.548Z" transform="translate(-2927.8 -1098.252)" fill="#fff"/><path d="M3555.448,854.8H3422.7v1.081h132.748Z" transform="translate(-3422.7 -658.242)" fill="#fff"/><path d="M3539.76,997.6H3500.9l19.913,34.469,19.913-34.469Zm-37,1.1h36.055l-18.027,31.227L3502.762,998.7Z" transform="translate(-3425.96 -768.206)" fill="#fff"/><path d="M3295.641,1140.5H3257.7v1.081h37.941Z" transform="translate(-3124.952 -878.247)" fill="#fff"/><path d="M3332.64,131.138,3256.942,0H3255.7l76.02,131.667Z" transform="translate(-3161.492)" fill="#fff"/><path d="M3745.959,997.6H3670.1v1.1h75.859Z" transform="translate(-3670.1 -768.206)" fill="#fff"/></g></svg>