<svg xmlns="http://www.w3.org/2000/svg" width="797.497" height="459.891" viewBox="0 0 797.497 459.891"><g transform="translate(-531.8)" opacity="0.202"><path d="M978.543,1130.191l19.43,33.687H958.79L863.8,999.352l.943-.552,94.668,163.974h36.676L977.6,1130.743Z" transform="translate(-255.658 -769.13)" fill="#fff"/><path d="M532.766,1283.4h38.861l-19.913,34.469L531.8,1283.4Zm36.975,1.081H533.686l18.028,31.227,18.028-31.227Z" transform="translate(0 -988.288)" fill="#fff"/><path d="M1002.668,778.346,946.24,876.073h302.194l18.649-32.307L1191.545,712.9H964.589l-18.327,31.755h37v1.081H944.4q9.8-16.97,19.591-33.94h228.2q38.079,65.983,76.181,131.943-9.623,16.694-19.27,33.388-152.35,0-304.7,0l57.371-99.36.9.575Z" transform="translate(-317.724 -548.125)" fill="#fff"/><path d="M2138.918,1207.924l-37.918-65.7.943-.529,37.918,65.7Z" transform="translate(-1208.37 -879.171)" fill="#fff"/><path d="M2185.5,1283.4h37.941v1.081H2185.5Z" transform="translate(-1273.439 -988.288)" fill="#fff"/><path d="M2203.39,1142.229l-18.971,32.859-.92-.552,18.948-32.836Z" transform="translate(-1271.899 -879.171)" fill="#fff"/><path d="M1295.238,779.347l-38.079,65.971H1104.82L1028.8,713.652l.943-.552,75.7,131.138h151.1l37.78-65.443Z" transform="translate(-382.717 -549.126)" fill="#fff"/><path d="M1358.7,844.491,1434.559,713.1l.943.552-75.859,131.391Z" transform="translate(-636.758 -549.126)" fill="#fff"/><path d="M1688.6,844.491,1764.459,713.1l.943.552-75.859,131.391Z" transform="translate(-890.799 -549.126)" fill="#fff"/><path d="M1561.541,1065.047l-37.941-65.7.943-.552,37.941,65.7Z" transform="translate(-763.74 -769.13)" fill="#fff"/><path d="M1606.1,811.655l56.912-98.555.92.552-56.889,98.532Z" transform="translate(-827.269 -549.126)" fill="#fff"/><path d="M1707.57,460.788l-18.97-32.836.943-.552,18.971,32.836Z" transform="translate(-890.799 -329.121)" fill="#fff"/><path d="M1599.482,492.723l-19.131-33.135L1599,427.281h-36.676l-37.78,65.442-.943-.552,38.1-65.971h39.183l-19.292,33.388,18.809,32.583Z" transform="translate(-763.74 -328.197)" fill="#fff"/><path d="M875,998.7h-75.56l-18.35,31.756H893.943v1.081H779.2q9.8-16.97,19.591-33.94h76.181v1.1Z" transform="translate(-190.511 -768.206)" fill="#fff"/><path d="M755.114,1142.229l-56.429,97.75H849.461v1.081H696.8l57.371-99.359Z" transform="translate(-127.059 -879.171)" fill="#fff"/><path d="M1276.2,1493.1l37.941-65.7.92.529-37.918,65.718Z" transform="translate(-573.228 -1099.176)" fill="#fff"/><path d="M2265.786,744.759h37.3l18.648,32.307,37-64.063h-74.617l-18.326,31.756Zm36.676,1.081H2263.9q9.8-16.97,19.591-33.94h77.1q-19.419,33.664-38.861,67.328l-19.269-33.388Z" transform="translate(-1333.812 -548.202)" fill="#fff"/><path d="M2367.37,746.488l-18.97-32.836.943-.552,18.97,32.859Z" transform="translate(-1398.881 -549.126)" fill="#fff"/><path d="M2760.663,742.988h36.055l-18.028-31.227-18.028,31.227Zm37,1.081H2758.8l19.913-34.469q9.968,17.246,19.913,34.469Z" transform="translate(-1714.912 -546.431)" fill="#fff"/><path d="M2597.9,1426.2h37.918v1.081H2597.9Z" transform="translate(-1591.009 -1098.252)" fill="#fff"/><path d="M2467.362,1097.167H2428.8q28.767-49.806,57.51-99.635c25.708-.046,51.416,0,77.124,0l-38.24,66.247,19.292,33.388h-38.562l-19.27,33.388-19.292-33.388Zm-36.676-1.081h37.3l18.649,32.307,18.648-32.307h37.3l-18.649-32.307,37.62-65.167H2486.93l-56.245,97.474Z" transform="translate(-1460.793 -768.138)" fill="#fff"/><path d="M2716.241,1065.047l-37.941-65.7.943-.552,37.941,65.7Z" transform="translate(-1652.922 -769.13)" fill="#fff"/><path d="M3089.643,569.1h38.24l38.562,66.776H3088.7l19.269-33.388L3088.7,569.1Zm37.619,1.081h-36.676l18.648,32.307L3090.586,634.8h74l-37.32-64.615Z" transform="translate(-1968.953 -438.238)" fill="#fff"/><path d="M3193.09,570.752l-18.947,32.859-.943-.552,18.971-32.859Z" transform="translate(-2034.022 -439.085)" fill="#fff"/><path d="M3192.171,1032.188,3173.2,999.352l.943-.552,18.947,32.859Z" transform="translate(-2034.022 -769.13)" fill="#fff"/><path d="M3108.514,997.6h38.24q9.623,16.694,19.27,33.388l-19.591,33.94-19.27-33.388H3088.6q9.8-16.97,19.591-33.94Zm37.619,1.1h-37.32l-18.35,31.756h37.3l18.649,32.307,18.35-31.778L3146.132,998.7Z" transform="translate(-1968.875 -768.206)" fill="#fff"/><path d="M1855.6,426.2h493.1v1.081H1855.6Z" transform="translate(-1019.398 -328.197)" fill="#fff"/><path d="M1443.2,1711.9h587.925v1.1H1443.2Z" transform="translate(-701.828 -1318.256)" fill="#fff"/><path d="M1853.6,98.279,1910.328,0h1.242l-57.05,98.808Z" transform="translate(-1017.858)" fill="#fff"/><path d="M1110.6,1779.071l38.079-65.971.943.552-37.78,65.42Z" transform="translate(-445.707 -1319.18)" fill="#fff"/><path d="M2100.3,1559.067l76.02-131.667.943.529-75.721,131.138Z" transform="translate(-1207.831 -1099.176)" fill="#fff"/><path d="M2678.3,163.974,2772.969,0h1.264l-94.991,164.526Z" transform="translate(-1652.922)" fill="#fff"/><path d="M2927.8,1426.2h246.548v1.081H2927.8Z" transform="translate(-1845.051 -1098.252)" fill="#fff"/><path d="M3422.7,854.8h132.748v1.081H3422.7Z" transform="translate(-2226.151 -658.243)" fill="#fff"/><path d="M3501.865,997.6h38.861l-19.913,34.469L3500.9,997.6Zm37,1.1h-36.055l18.027,31.227,18.028-31.227Z" transform="translate(-2286.369 -768.206)" fill="#fff"/><path d="M3257.7,1140.5h37.941v1.081H3257.7Z" transform="translate(-2099.092 -878.247)" fill="#fff"/><path d="M3255.7,131.138,3331.4,0h1.241l-76.02,131.667Z" transform="translate(-2097.552)" fill="#fff"/><path d="M3670.1,997.6h75.859v1.1H3670.1Z" transform="translate(-2416.662 -768.206)" fill="#fff"/></g></svg>