<svg xmlns="http://www.w3.org/2000/svg" width="36.659" height="27.615" viewBox="0 0 36.659 27.615"><g transform="translate(0 -63.156)"><path d="M37.045,83.349H64.834a1.921,1.921,0,0,0,1.921-1.921V65.076a1.921,1.921,0,0,0-1.921-1.92H37.045a1.92,1.92,0,0,0-1.92,1.92V81.428A1.92,1.92,0,0,0,37.045,83.349Zm1.016-17.613H63.818V80.317H38.061Z" transform="translate(-32.61)" fill="#fff"/><path d="M36.374,376.22l-3.426-3.041a1.324,1.324,0,0,0-.872-.305H4.581a1.324,1.324,0,0,0-.871.305L.284,376.22a.787.787,0,0,0-.284.587v1.059a.524.524,0,0,0,.577.446h35.5a.523.523,0,0,0,.577-.446v-1.059A.787.787,0,0,0,36.374,376.22Zm-21.973.359.991-1.34h6.282l.99,1.34Z" transform="translate(0 -287.543)" fill="#fff"/></g></svg>