<svg xmlns="http://www.w3.org/2000/svg" width="26.742" height="18.699" viewBox="0 0 26.742 18.699"><g transform="translate(18056 19776.296)"><path d="M26.74,16H0V.888a.29.29,0,0,0,.1.184L3.97,4.154l.145.116c2.642,2.105,5.373,4.282,8.067,6.437a1.724,1.724,0,0,0,1.078.378.561.561,0,0,0,.067-.005l.044,0,.042,0a.571.571,0,0,0,.069.005,1.723,1.723,0,0,0,1.077-.378c2.588-2.07,5.225-4.172,7.775-6.2l.079-.063,4.224-3.368a.279.279,0,0,0,.1-.185V16Z" transform="translate(-18056 -19773.598)" fill="#fff"/><path d="M153.064,155.326a1.724,1.724,0,0,0,1.078.378c.037,0,.073-.007.111-.01s.073.01.111.01a1.724,1.724,0,0,0,1.077-.378q6.029-4.822,12.078-9.634a.279.279,0,0,0,.1-.217v-.617a.239.239,0,0,0-.238-.238H141.119a.238.238,0,0,0-.238.238v.617a.278.278,0,0,0,.1.217Q147.031,150.514,153.064,155.326Z" transform="translate(-18196.881 -19920.916)" fill="#fff"/></g></svg>