<svg xmlns="http://www.w3.org/2000/svg" width="18.36" height="23.945" viewBox="0 0 18.36 23.945"><g transform="translate(-59.712 0)"><path d="M61.354,1.014c-1.645,1.067-1.969,4.4-1.347,7.121a24.555,24.555,0,0,0,3.247,7.631A25.5,25.5,0,0,0,68.9,21.843c2.229,1.676,5.406,2.741,7.052,1.674a8.332,8.332,0,0,0,2.124-2.278l-.884-1.363-2.431-3.748c-.181-.279-1.313-.024-1.889.3a5.479,5.479,0,0,0-1.491,1.62c-.532.308-.978,0-1.909-.428-1.145-.527-2.432-2.163-3.456-3.645-.936-1.54-1.9-3.382-1.919-4.642-.012-1.025-.109-1.557.388-1.918a5.479,5.479,0,0,0,2.087-.7c.532-.392,1.227-1.323,1.046-1.6L65.184,1.366,64.3,0A8.333,8.333,0,0,0,61.354,1.014Z" transform="translate(0 0)" fill="#013f98"/></g></svg>