<svg xmlns="http://www.w3.org/2000/svg" width="199.361" height="365.694"><defs><clipPath id="a"><path d="M0 0h199.361v365.694H0z" transform="translate(0 3241)" fill="#153159"/></clipPath><clipPath id="b"><path d="M1440 0H0v624h1440z" fill="#025fae"/></clipPath></defs><g transform="translate(0 -3241)" clip-path="url(#a)"><g transform="translate(-193 3218)" clip-path="url(#b)"><g opacity=".202" fill="#fff"><path d="M170.565 278.186l-19.43 33.687h39.183l94.99-164.526-.943-.552-94.668 163.974H153.02l18.488-32.031zm190.118-65.949h-38.861l19.913 34.469 19.913-34.469zm-36.975 1.081h36.055l-18.028 31.227-18.028-31.227z"/><path d="M208.503 147.346l56.429 97.727H-37.261l-18.649-32.307L19.628 81.9h226.956l18.327 31.755h-37v1.081h38.861q-9.8-16.97-19.591-33.94h-228.2q-38.078 65.987-76.178 131.947 9.623 16.694 19.27 33.388h304.7l-57.37-99.36-.9.575z"/><path d="M-37.099 245.878l37.918-65.7-.943-.529-37.918 65.705z"/><path d="M-18.612 212.237h-37.941v1.081h37.941z"/><path d="M-38.042 180.183l18.971 32.859.92-.552-18.948-32.836zm18.97-32.837l38.079 65.971h152.339l76.02-131.667-.943-.552-75.7 131.138H19.628l-37.78-65.437z"/><path d="M171.505 212.49L95.648 81.099l-.943.552 75.859 131.391zm-75.859 0L19.789 81.099l-.943.552 75.859 131.391z"/><path d="M95.648 213.042l37.941-65.7-.943-.552-37.941 65.7z"/><path d="M114.618 179.654L57.707 81.099l-.92.552 56.889 98.532zM76.678 48.792l18.97-32.836-.943-.552-18.97 32.836z"/><path d="M57.704 81.651l19.131-33.135-18.648-32.307h36.676l37.78 65.442.943-.552-38.1-65.971H56.304l19.292 33.388-18.809 32.583zm151.262 65.968h75.56l18.35 31.756H190.018v1.081h114.743q-9.8-16.97-19.591-33.94h-76.181v1.1z"/><path d="M265.394 180.183l56.429 97.75H171.047v1.081h152.661l-57.371-99.36z"/><path d="M190.478 311.049l-37.941-65.7-.92.529 37.918 65.718zM-38.525 113.682h-37.3l-18.648 32.307-37-64.063h74.617l18.326 31.756zm-36.676 1.081h38.562q-9.8-16.97-19.591-33.94h-77.1q19.419 33.664 38.861 67.328l19.269-33.388z"/><path d="M-75.04 114.487l18.97-32.836-.943-.552-18.97 32.859zm-77.263-.805h-36.055l18.028-31.227 18.028 31.227zm-37 1.081h38.861l-19.911-34.469q-9.968 17.246-19.913 34.469zm75.862 130.31h-37.918v1.081h37.918z"/><path d="M-113.12 246.154h38.562q-28.767-49.806-57.51-99.635c-25.708-.046-51.416 0-77.124 0l38.24 66.247-19.292 33.388h38.562l19.27 33.388 19.292-33.388zm36.676-1.081h-37.3l-18.649 32.307-18.648-32.307h-37.3l18.649-32.307-37.62-65.167h74.621l56.245 97.474z"/><path d="M-169.87 213.042l37.941-65.7-.943-.552-37.941 65.7zm-57.373-165.055h-38.24l-38.56 66.776h77.744l-19.269-33.388 19.269-33.388zm-37.619 1.081h36.676l-18.648 32.307 18.648 32.307h-74l37.32-64.615z"/><path d="M-265.619 48.792l18.947 32.859.943-.552L-264.7 48.24zm.919 131.391l18.971-32.836-.943-.552-18.947 32.859z"/><path d="M-246.189 146.519h-38.24q-9.623 16.694-19.27 33.388l19.591 33.94 19.27-33.388h38.562q-9.8-16.97-19.591-33.94zm-37.619 1.1h37.32l18.35 31.756h-37.3l-18.649 32.307-18.35-31.778 18.626-32.284zM57.252 15.128h-493.1v1.081h493.1zm94.825 295.641h-587.925v1.1h587.925z"/><path d="M57.707 15.404L.98-82.875H-.262l57.05 98.808zm170.85 361.612l-38.079-65.971-.943.552 37.78 65.42zm-227.577 0l-76.02-131.667-.943.529L-.262 377.016zM-131.929 81.099l-94.669-163.974h-1.264l94.991 164.526zm-57.372 163.974h-246.547v1.081H-189.3zM-303.1 113.682h-132.748v1.081H-303.1zm-18.948 32.837h-38.86l19.913 34.469 19.913-34.469zm-37 1.1h36.055l-18.027 31.227-18.026-31.227zm93.889 31.759H-303.1v1.081h37.941zm.459-131.115l-75.698-131.138h-1.242l76.02 131.667z"/><path d="M-359.989 146.519h-75.859v1.1h75.859z"/></g></g></g></svg>