<svg xmlns="http://www.w3.org/2000/svg" width="380.648" height="377.016"><defs><clipPath id="a"><path d="M0 0h380.648v377.016H0z" transform="translate(1059.352 2617)" fill="#025fae"/></clipPath></defs><g transform="translate(-1059.352 -2617)" clip-path="url(#a)"><g opacity=".202" fill="#fff"><path d="M1250.436 2895.186l19.43 33.687h-39.183l-94.99-164.526.943-.552 94.668 163.974h36.676l-18.487-32.031zm-190.119-65.949h38.861l-19.913 34.469-19.914-34.469zm36.975 1.081h-36.055l18.028 31.227 18.028-31.227z"/><path d="M1212.495 2764.346l-56.428 97.727h302.194l18.649-32.307-75.538-130.866h-226.956l-18.327 31.755h37v1.081h-38.862q9.8-16.97 19.591-33.94h228.2q38.079 65.983 76.181 131.943-9.623 16.694-19.27 33.388h-304.7l57.371-99.36.9.575z"/><path d="M1458.099 2862.878l-37.918-65.7.943-.529 37.918 65.7z"/><path d="M1439.612 2829.237h37.941v1.081h-37.941z"/><path d="M1459.042 2797.183l-18.971 32.859-.92-.552 18.948-32.836zm-18.97-32.837l-38.079 65.971h-152.339l-76.02-131.666.943-.552 75.7 131.138h151.1l37.78-65.443z"/><path d="M1249.493 2829.49l75.859-131.391.943.552-75.859 131.391zm75.859 0l75.859-131.391.943.552-75.859 131.391z"/><path d="M1325.352 2830.042l-37.941-65.7.943-.552 37.941 65.7z"/><path d="M1306.382 2796.654l56.912-98.555.92.552-56.889 98.532zm37.94-130.862l-18.97-32.836.943-.552 18.971 32.836z"/><path d="M1363.293 2698.651l-19.131-33.135 18.649-32.307h-36.676l-37.78 65.442-.943-.552 38.1-65.971h39.183l-19.292 33.388 18.809 32.583zm-151.253 65.968h-75.56l-18.35 31.756h112.853v1.081H1116.24q9.8-16.97 19.591-33.94h76.181v1.1z"/><path d="M1155.606 2797.183l-56.429 97.75h150.776v1.081h-152.661l57.371-99.359z"/><path d="M1230.523 2928.049l37.941-65.7.92.529-37.918 65.718zm229.002-197.367h37.3l18.648 32.307 37-64.063h-74.617l-18.326 31.756zm36.676 1.081h-38.562q9.8-16.97 19.591-33.94h77.1q-19.419 33.664-38.861 67.328l-19.269-33.388z"/><path d="M1496.04 2731.487l-18.97-32.836.943-.552 18.97 32.859zm77.262-.805h36.055l-18.028-31.227-18.028 31.227zm37 1.081h-38.863l19.913-34.469q9.968 17.246 19.913 34.469zm-75.86 130.31h37.918v1.081h-37.918z"/><path d="M1534.12 2863.154h-38.562q28.767-49.806 57.51-99.635c25.708-.046 51.416 0 77.124 0l-38.24 66.247 19.292 33.388h-38.562l-19.27 33.388-19.292-33.388zm-36.676-1.081h37.3l18.649 32.307 18.648-32.307h37.3l-18.649-32.307 37.62-65.167h-74.624l-56.245 97.474z"/><path d="M1590.87 2830.042l-37.941-65.7.943-.552 37.941 65.7zm57.371-165.055h38.24l38.562 66.776h-77.745l19.269-33.388-19.269-33.388zm37.619 1.081h-36.676l18.648 32.307-18.648 32.312h74l-37.32-64.615z"/><path d="M1686.619 2665.792l-18.947 32.859-.943-.552 18.971-32.859zm-.919 131.391l-18.971-32.836.943-.552 18.947 32.859z"/><path d="M1667.19 2763.519h38.24q9.623 16.694 19.27 33.388l-19.591 33.94-19.27-33.388h-38.563q9.8-16.97 19.591-33.94zm37.619 1.1h-37.32l-18.35 31.756h37.3l18.649 32.307 18.35-31.778-18.63-32.285zm-341.056-132.491h493.1v1.081h-493.1zm-94.83 295.641h587.925v1.1h-587.925z"/><path d="M1363.293 2632.404l56.728-98.279h1.242l-57.05 98.808zm-170.849 361.612l38.079-65.971.943.552-37.78 65.42zm227.576 0l76.02-131.667.943.529-75.721 131.138zm132.909-295.917l94.669-163.974h1.264l-94.991 164.526zm57.371 163.974h246.548v1.081H1610.3zm113.8-131.391h132.748v1.081H1724.1zm18.947 32.837h38.861l-19.913 34.469-19.913-34.469zm37 1.1h-36.055l18.027 31.227 18.028-31.227zm-93.888 31.759h37.941v1.081h-37.941zm-.46-131.115l75.7-131.138h1.241l-76.02 131.667z"/><path d="M1780.989 2763.519h75.859v1.1h-75.859z"/></g></g></svg>