<svg xmlns="http://www.w3.org/2000/svg" width="14.717" height="13.593"><path d="M7.502 6.335a1.167 1.167 0 01-1.113.043L4.811 5.61l-1.389-.678 2.726 3.744a1.187 1.187 0 001.854.2l6.716-6.683z" fill="#ea0000"/><path d="M13.257 5.438l-1.919 1.848a4.7 4.7 0 01-4.638 4.25 4.751 4.751 0 01-4.207-6.8c.04-.089.088-.18.142-.276l.047-.082q.1-.171.216-.335l.04-.057c.058-.082.121-.162.184-.235a4.623 4.623 0 013.577-1.7 4.573 4.573 0 013.319 1.412l1.494-.889.291-.173-.018-.02a6.623 6.623 0 00-10.48.388 4.37 4.37 0 00-.182.267A6.81 6.81 0 006.7 13.593a6.753 6.753 0 006.694-6.8 6.875 6.875 0 00-.1-1.162c-.014-.061-.024-.128-.037-.193z" fill="#ea0000"/></svg>