<svg xmlns="http://www.w3.org/2000/svg" width="18.36" height="23.945"><path d="M1.642 1.014C-.003 2.081-.327 5.414.295 8.135a24.555 24.555 0 003.247 7.631 25.5 25.5 0 005.646 6.077c2.229 1.676 5.406 2.741 7.052 1.674a8.332 8.332 0 002.124-2.278l-.884-1.363-2.431-3.748c-.181-.279-1.313-.024-1.889.3a5.479 5.479 0 00-1.491 1.62c-.532.308-.978 0-1.909-.428-1.145-.527-2.432-2.163-3.456-3.645-.936-1.54-1.9-3.382-1.919-4.642-.012-1.025-.109-1.557.388-1.918a5.479 5.479 0 002.087-.7c.532-.392 1.227-1.323 1.046-1.6L5.472 1.366 4.588 0a8.333 8.333 0 00-2.946 1.014z" fill="#013f98"/></svg>