<svg xmlns="http://www.w3.org/2000/svg" width="22.936" height="33.747"><path data-name="パス 1121" d="M3.757 21.367c6.252 11.918 13.274 13.144 15.316 12.073l.533-.28-4.78-9.115c-.175.09-.354.181-.534.276-1.646.865-3.291-1.632-5.4-5.648s-3.226-6.788-1.58-7.652c.182-.095.358-.189.531-.281L3.061 1.623l-.533.28C.487 2.973-2.495 9.45 3.757 21.367zm18.741 10.277c.789-.414.356-1.321-.093-2.176l-3.213-6.124c-.345-.658-.917-1.03-1.378-.788-.29.152-.964.473-1.834.9l4.773 9.1zM10.768 9.125c.461-.241.48-.925.135-1.582L7.692 1.419C7.243.563 6.744-.308 5.955.106l-1.745.915 4.773 9.1c.843-.471 1.495-.844 1.785-.996z"/></svg>