<svg xmlns="http://www.w3.org/2000/svg" width="15.838" height="14.128"><g fill="#ea0000"><path d="M7.041 6.679a.912.912 0 01-.4-.095L4.098 5.346a.48.48 0 00-.578.124l-.034.04 2.638 3.622a1.386 1.386 0 001.163.641 1.364 1.364 0 00.972-.406l7.584-7.194a.491.491 0 00-.641-.129L7.513 6.551a.92.92 0 01-.472.128z"/><path d="M14.128 5.621l-2.2 2.089v3.533a.692.692 0 01-.683.683H2.887a.692.692 0 01-.683-.683V2.887a.692.692 0 01.683-.683h8.353a.685.685 0 01.56.3l1.878-1.1.024-.014A2.887 2.887 0 0011.238.004H2.887A2.891 2.891 0 000 2.887v8.353a2.89 2.89 0 002.887 2.887h8.353a2.889 2.889 0 002.887-2.887V5.619z"/></g></svg>