<svg xmlns="http://www.w3.org/2000/svg" width="797.497" height="459.891"><g opacity=".202" fill="#fff"><path d="M606.413 361.061l-19.43 33.687h39.183l94.99-164.526-.943-.552-94.668 163.974h-36.677l18.488-32.031zm190.118-65.949H757.67l19.913 34.469 19.913-34.469zm-36.975 1.081h36.055l-18.028 31.227-18.028-31.227z"/><path d="M644.351 230.221l56.429 97.727H398.587l-18.649-32.307 75.538-130.866h226.956l18.327 31.755h-37v1.081h38.861q-9.8-16.97-19.591-33.94h-228.2q-38.078 65.987-76.178 131.947 9.623 16.694 19.27 33.388h304.7l-57.37-99.36-.9.575z"/><path d="M398.749 328.753l37.918-65.7-.943-.529-37.918 65.705z"/><path d="M417.236 295.112h-37.941v1.081h37.941z"/><path d="M397.806 263.058l18.971 32.859.92-.552-18.948-32.836zm18.97-32.837l38.079 65.971h152.339l76.02-131.667-.943-.552-75.7 131.138H455.476l-37.78-65.437z"/><path d="M607.353 295.365l-75.857-131.391-.943.552 75.859 131.391zm-75.859 0l-75.857-131.391-.943.552 75.859 131.391z"/><path d="M531.496 295.917l37.941-65.7-.943-.552-37.941 65.7z"/><path d="M550.466 262.529l-56.911-98.555-.92.552 56.889 98.532zm-37.94-130.862l18.97-32.836-.943-.552-18.97 32.836z"/><path d="M493.552 164.526l19.131-33.135-18.648-32.307h36.676l37.78 65.443.943-.552-38.1-65.971h-39.182l19.292 33.388-18.809 32.583zm151.262 65.968h75.56l18.35 31.756H625.866v1.081h114.743q-9.8-16.97-19.591-33.94h-76.181v1.1z"/><path d="M701.242 263.058l56.429 97.75H606.895v1.081h152.661l-57.371-99.36z"/><path d="M626.326 393.924l-37.941-65.7-.92.529 37.918 65.718zM397.323 196.557h-37.3l-18.648 32.307-37-64.063h74.617l18.326 31.756zm-36.676 1.081h38.562q-9.8-16.97-19.591-33.94h-77.1q19.419 33.664 38.861 67.328l19.269-33.388z"/><path d="M360.808 197.362l18.97-32.836-.943-.552-18.97 32.859zm-77.263-.805H247.49l18.028-31.227 18.028 31.227zm-37 1.081h38.861l-19.911-34.469q-9.968 17.246-19.913 34.469zm75.862 130.31h-37.918v1.081h37.918z"/><path d="M322.728 329.029h38.562q-28.767-49.806-57.51-99.635c-25.708-.046-51.416 0-77.124 0l38.24 66.247-19.292 33.388h38.562l19.27 33.388 19.292-33.388zm36.676-1.081h-37.3l-18.649 32.307-18.648-32.307h-37.3l18.649-32.307-37.62-65.167h74.621l56.245 97.474z"/><path d="M265.978 295.917l37.941-65.7-.943-.552-37.941 65.7zm-57.373-165.055h-38.24l-38.56 66.776h77.744L190.28 164.25l19.269-33.388zm-37.619 1.081h36.676l-18.648 32.307 18.648 32.307h-74l37.32-64.615z"/><path d="M170.229 131.667l18.947 32.859.943-.552-18.971-32.859zm.919 131.391l18.971-32.836-.943-.552-18.947 32.859z"/><path d="M189.659 229.394h-38.24q-9.623 16.694-19.27 33.388l19.591 33.94 19.27-33.388h38.562q-9.8-16.97-19.591-33.94zm-37.619 1.1h37.32l18.35 31.756h-37.3l-18.649 32.307-18.35-31.778 18.626-32.284zM493.1 98.003H0v1.081h493.1zm94.825 295.641H0v1.1h587.925z"/><path d="M493.555 98.279L436.828 0h-1.242l57.05 98.808zm170.85 361.612l-38.079-65.971-.943.552 37.78 65.42zm-227.577 0l-76.02-131.667-.943.529 75.721 131.138zM303.919 163.974l-39.571-65.8h-1.262l39.893 66.352zm-57.372 163.974H0v1.081h246.548zm-113.799-131.39H0v1.081h132.748zM113.8 229.394H74.94l19.913 34.469 19.913-34.469zm-37 1.1h36.055l-18.027 31.227-18.026-31.227zm93.889 31.759h-37.941v1.081h37.941zm.459-131.115L95.45 0h-1.242l76.02 131.667z"/><path d="M75.859 229.394H0v1.1h75.859z"/></g></svg>