<svg xmlns="http://www.w3.org/2000/svg" width="36.659" height="27.615"><path d="M4.435 20.193h27.789a1.921 1.921 0 001.921-1.921V1.92A1.921 1.921 0 0032.224 0H4.435a1.92 1.92 0 00-1.92 1.92v16.352a1.92 1.92 0 001.92 1.921zM5.451 2.58h25.757v14.581H5.451zm30.923 22.941l-3.426-3.041a1.324 1.324 0 00-.872-.305H4.581a1.324 1.324 0 00-.871.305L.284 25.521a.787.787 0 00-.284.587v1.059a.524.524 0 00.577.446h35.5a.523.523 0 00.577-.446v-1.059a.787.787 0 00-.28-.587zm-21.973.359l.991-1.34h6.282l.99 1.34z" fill="#fff"/></svg>