<svg xmlns="http://www.w3.org/2000/svg" width="15.5" height="19.359"><g fill="#fff"><path d="M13.33.5H6.558a1.835 1.835 0 00-1.3.537L1.037 5.262a1.833 1.833 0 00-.537 1.3V17.19a1.672 1.672 0 001.67 1.669h11.16a1.671 1.671 0 001.669-1.669V2.169A1.671 1.671 0 0013.33.5zM5.966 1.66v3.753c0 .406-.158.564-.564.564H1.65zm8.1 15.53a.731.731 0 01-.731.731H2.17a.731.731 0 01-.731-.731V6.811h4.466a.9.9 0 00.9-.9V1.439h6.53a.731.731 0 01.731.73z"/><path d="M6.558 0h6.773A2.171 2.171 0 0115.5 2.169V17.19a2.172 2.172 0 01-2.169 2.169H2.17A2.172 2.172 0 010 17.19V6.558a2.317 2.317 0 01.682-1.65L4.908.683A2.351 2.351 0 016.558 0zm6.773 17.421a.231.231 0 00.23-.23V2.169a.231.231 0 00-.23-.23h-6.03v3.976a1.4 1.4 0 01-1.4 1.4H1.939v9.875a.231.231 0 00.231.23zM5.464 5.474V2.867L2.857 5.476h2.545z"/></g><path d="M11.137 14.18h-7a.5.5 0 01-.5-.5.5.5 0 01.5-.5h7a.5.5 0 01.5.5.5.5 0 01-.5.5zm0-3h-7a.5.5 0 01-.5-.5.5.5 0 01.5-.5h7a.5.5 0 01.5.5.5.5 0 01-.5.5z" fill="#feffff"/></svg>