<svg xmlns="http://www.w3.org/2000/svg" width="26.742" height="18.699"><g fill="#fff"><path d="M26.74 18.698H0V3.586a.29.29 0 00.1.184l3.87 3.082.145.116c2.642 2.105 5.373 4.282 8.067 6.437a1.724 1.724 0 001.078.378.561.561 0 00.067-.005h.086a.571.571 0 00.069.005 1.723 1.723 0 001.077-.378c2.588-2.07 5.225-4.172 7.775-6.2l.079-.063 4.224-3.368a.279.279 0 00.1-.185v15.109z"/><path d="M12.183 10.706a1.724 1.724 0 001.078.378c.037 0 .073-.007.111-.01s.073.01.111.01a1.724 1.724 0 001.077-.378q6.029-4.822 12.078-9.634a.279.279 0 00.1-.217V.238A.239.239 0 0026.5 0H.238A.238.238 0 000 .238v.617a.278.278 0 00.1.217q6.05 4.822 12.083 9.634z"/></g></svg>